<svg width="24" height="24" viewBox="0 0 24 24" fill="none" xmlns="http://www.w3.org/2000/svg">
<path fill-rule="evenodd" clip-rule="evenodd" d="M8.2761 0.589025C6.77107 4.00015 4.60044 6.34197 2.19053 7.91266C1.60766 8.29255 1.00815 8.6291 0.397413 8.92578C1.438 4.98804 4.43 1.84335 8.2761 0.589025ZM10.1611 0.140017C8.55274 4.38051 6.00943 7.30367 3.05053 9.23217C2.08502 9.86145 1.08111 10.3809 0.0588358 10.8042C0.0199219 11.1975 0 11.5964 0 12C0 12.4724 0.0272958 12.9384 0.0803956 13.3965C1.90224 12.9385 3.71513 12.2046 5.39052 11.1127C8.60141 9.01992 11.3875 5.55828 12.7405 0.0224763C12.4956 0.00756464 12.2487 0 12 0C11.3747 0 10.7606 0.0478271 10.1611 0.140017ZM6.25053 12.4322C9.88566 10.0629 12.8935 6.19243 14.3112 0.222367C15.037 0.363976 15.7394 0.571009 16.412 0.837077C15.3404 7.78744 12.2398 11.9342 8.59052 14.3127C6.2446 15.8416 3.62907 16.6686 1.0969 17.0191C0.792639 16.3593 0.546523 15.6671 0.365105 14.9492C2.3739 14.4547 4.38398 13.6487 6.25053 12.4322ZM17.8919 1.54361C16.6962 8.5932 13.4537 13.023 9.45053 15.6322C7.0686 17.1846 4.45295 18.0685 1.90448 18.4896C2.3296 19.1496 2.81766 19.7652 3.36019 20.3279C6.1768 20.0628 9.15394 19.2311 11.7905 17.5127C15.642 15.0024 18.8823 10.5225 19.7712 2.85592C19.1899 2.36141 18.5608 1.92135 17.8919 1.54361ZM12.6505 18.8322C16.7446 16.1638 20.043 11.5912 21.1701 4.25955C21.8429 5.05576 22.4138 5.94077 22.8629 6.89451C21.8415 14.0516 18.6994 18.2954 14.9905 20.7127C12.8153 22.1304 10.4082 22.9446 8.05076 23.335C6.93389 22.9459 5.89218 22.3964 4.95323 21.7141C7.54931 21.3033 10.2214 20.4153 12.6505 18.8322ZM23.8478 10.0836C22.4052 15.9056 19.4324 19.6977 15.8505 22.0322C14.5607 22.8728 13.2023 23.5175 11.8232 23.9987C11.882 23.9996 11.941 24 12 24C18.6274 24 24 18.6274 24 12C24 11.3477 23.948 10.7076 23.8478 10.0836Z" fill="url(#paint0_linear_34_166)"/>
<defs>
<linearGradient id="paint0_linear_34_166" x1="0" y1="0" x2="24" y2="24" gradientUnits="userSpaceOnUse">
<stop stop-color="#ABBAAB"/>
<stop offset="1" stop-color="white"/>
</linearGradient>
</defs>
</svg>
