<svg width="36" height="36" viewBox="0 0 36 36" fill="none" xmlns="http://www.w3.org/2000/svg">
<rect width="36" height="36" rx="2" fill="#09090B"/>
<path fill-rule="evenodd" clip-rule="evenodd" d="M14.2761 6.58902C12.7711 10.0001 10.6004 12.342 8.19053 13.9127C7.60766 14.2925 7.00815 14.6291 6.39741 14.9258C7.438 10.988 10.43 7.84335 14.2761 6.58902ZM16.1611 6.14002C14.5527 10.3805 12.0094 13.3037 9.05053 15.2322C8.08502 15.8615 7.08111 16.3809 6.05884 16.8042C6.01992 17.1975 6 17.5964 6 18C6 18.4724 6.0273 18.9384 6.0804 19.3965C7.90224 18.9385 9.71513 18.2046 11.3905 17.1127C14.6014 15.0199 17.3875 11.5583 18.7405 6.02248C18.4956 6.00756 18.2487 6 18 6C17.3747 6 16.7606 6.04783 16.1611 6.14002ZM12.2505 18.4322C15.8857 16.0629 18.8935 12.1924 20.3112 6.22237C21.037 6.36398 21.7394 6.57101 22.412 6.83708C21.3404 13.7874 18.2398 17.9342 14.5905 20.3127C12.2446 21.8416 9.62907 22.6686 7.0969 23.0191C6.79264 22.3593 6.54652 21.6671 6.3651 20.9492C8.3739 20.4547 10.384 19.6487 12.2505 18.4322ZM23.8919 7.54361C22.6962 14.5932 19.4537 19.023 15.4505 21.6322C13.0686 23.1846 10.4529 24.0685 7.90448 24.4896C8.3296 25.1496 8.81766 25.7652 9.36019 26.3279C12.1768 26.0628 15.1539 25.2311 17.7905 23.5127C21.642 21.0024 24.8823 16.5225 25.7712 8.85592C25.1899 8.36141 24.5608 7.92135 23.8919 7.54361ZM18.6505 24.8322C22.7446 22.1638 26.043 17.5912 27.1701 10.2595C27.8429 11.0558 28.4138 11.9408 28.8629 12.8945C27.8415 20.0516 24.6994 24.2954 20.9905 26.7127C18.8153 28.1304 16.4082 28.9446 14.0508 29.335C12.9339 28.9459 11.8922 28.3964 10.9532 27.7141C13.5493 27.3033 16.2214 26.4153 18.6505 24.8322ZM29.8478 16.0836C28.4052 21.9056 25.4324 25.6977 21.8505 28.0322C20.5607 28.8728 19.2023 29.5175 17.8232 29.9987C17.882 29.9996 17.941 30 18 30C24.6274 30 30 24.6274 30 18C30 17.3477 29.948 16.7076 29.8478 16.0836Z" fill="white"/>
</svg>
